<svg viewBox="0 0 12 12" width="60px" height="60px" xmlns="http://www.w3.org/2000/svg"><path fill-rule="evenodd" d="M 0,0 4,0 4,1 7,1 7,0 11,0 11,3 10,3 10,4 9,4 9,7 2,7 2,4 1,4 1,3 0,3z" fill="#BD6BBD"/><path fill-rule="evenodd" d="M 3,8 8,8 8,11 3,11z" fill="#BD6BBD"/><path fill-rule="evenodd" d="M 1,1 3,1 3,2 4,2 4,3 2,3 2,2 1,2z" fill="#ffffff"/><path fill-rule="evenodd" d="M 8,1 10,1 10,2 9,2 9,3 7,3 7,2 8,2z" fill="#ffffff"/><path fill-rule="evenodd" d="M 5,2 6,2 6,3 5,3z" fill="#ffffff"/><path fill-rule="evenodd" d="M 4,4 5,4 5,6 3,6 3,5 4,5z" fill="#ffffff"/><path fill-rule="evenodd" d="M 6,4 7,4 7,5 8,5 8,6 6,6z" fill="#ffffff"/><path fill-rule="evenodd" d="M 4,9 5,9 5,10 4,10z" fill="#ffffff"/><path fill-rule="evenodd" d="M 6,9 7,9 7,10 6,10z" fill="#ffffff"/></svg>